{
  "source": "C:\\Users\\Peter\\Desktop\\stuff\\MIUN\\quantitative_research\\video_compression\\videos\\BVI-HD\\BVI-HD_CDVL_videos\\ORIG\\TreeTrunk_1920x1080_50fps.mp4",
  "output": "C:\\Users\\Peter\\Desktop\\stuff\\MIUN\\quantitative_research\\video_compression\\compressed_videos\\BVI-HD\\h264\\1.5\\TreeTrunk_1920x1080_50fps_h264.mp4",
  "codec": "h264",
  "ok": "Input #0, mov,mp4,m4a,3gp,3g2,mj2, from 'C:\\Users\\Peter\\Desktop\\stuff\\MIUN\\quantitative_research\\video_compression\\videos\\BVI-HD\\BVI-HD_CDVL_videos\\ORIG\\TreeTrunk_1920x1080_50fps.mp4':\n  Metadata:\n    major_brand     : isom\n    minor_version   : 512\n    compatible_brands: isomiso2avc1mp41\n    encoder         : Lavf54.28.101\n  Duration: 00:00:05.00, start: 0.000000, bitrate: 622415 kb/s\n  Stream #0:0[0x1](und): Video: h264 (High 4:4:4 Predictive) (avc1 / 0x31637661), yuv420p(progressive), 1920x1080, 622410 kb/s, 50 fps, 50 tbr, 50 tbn (default)\n    Metadata:\n      handler_name    : VideoHandler\n      vendor_id       : [0][0][0][0]\n[out#0/mp4 @ 000001f530fdf740] Codec AVOption b:a (set bitrate (in bits/s)) has not been used for any stream. The most likely reason is either wrong type (e.g. a video option with no video streams) or that it is a private option of some decoder which was not actually used for any stream.\nStream mapping:\n  Stream #0:0 -> #0:0 (h264 (native) -> h264 (libx264))\nPress [q] to stop, [?] for help\n[libx264 @ 000001f531c10340] using cpu capabilities: MMX2 SSE2Fast SSSE3 SSE4.2 AVX FMA3 BMI2 AVX2\n[libx264 @ 000001f531c10340] profile High, level 5.0, 4:2:0, 8-bit\n[libx264 @ 000001f531c10340] 264 - core 165 r3222 b35605a - H.264/MPEG-4 AVC codec - Copyleft 2003-2025 - http://www.videolan.org/x264.html - options: cabac=1 ref=5 deblock=1:0:0 analyse=0x3:0x113 me=hex subme=8 psy=1 psy_rd=1.00:0.00 mixed_ref=1 me_range=16 chroma_me=1 trellis=2 8x8dct=1 cqm=0 deadzone=21,11 fast_pskip=1 chroma_qp_offset=-2 threads=18 lookahead_threads=3 sliced_threads=0 nr=0 decimate=1 interlaced=0 bluray_compat=0 constrained_intra=0 bframes=3 b_pyramid=2 b_adapt=1 b_bias=0 direct=3 weightb=1 open_gop=0 weightp=2 keyint=250 keyint_min=25 scenecut=40 intra_refresh=0 rc_lookahead=50 rc=cbr mbtree=1 bitrate=1500 ratetol=1.0 qcomp=0.60 qpmin=0 qpmax=69 qpstep=4 vbv_maxrate=1500 vbv_bufsize=1500 nal_hrd=none filler=0 ip_ratio=1.40 aq=1:1.00\nOutput #0, mp4, to 'C:\\Users\\Peter\\Desktop\\stuff\\MIUN\\quantitative_research\\video_compression\\compressed_videos\\BVI-HD\\h264\\1.5\\TreeTrunk_1920x1080_50fps_h264.mp4':\n  Metadata:\n    major_brand     : isom\n    minor_version   : 512\n    compatible_brands: isomiso2avc1mp41\n    encoder         : Lavf62.3.100\n  Stream #0:0(und): Video: h264 (avc1 / 0x31637661), yuv420p(tv, progressive), 1920x1080, q=2-31, 1500 kb/s, 50 fps, 12800 tbn (default)\n    Metadata:\n      encoder         : Lavc62.11.100 libx264\n      handler_name    : VideoHandler\n      vendor_id       : [0][0][0][0]\n    Side data:\n      cpb: bitrate max/min/avg: 1500000/0/1500000 buffer size: 1500000 vbv_delay: N/A\nframe=    0 fps=0.0 q=0.0 size=       0KiB time=N/A bitrate=N/A speed=N/A elapsed=0:00:00.53    \nframe=    0 fps=0.0 q=0.0 size=       0KiB time=N/A bitrate=N/A speed=N/A elapsed=0:00:01.21    \nframe=    0 fps=0.0 q=0.0 size=       0KiB time=N/A bitrate=N/A speed=N/A elapsed=0:00:01.75    \nframe=    0 fps=0.0 q=0.0 size=       0KiB time=N/A bitrate=N/A speed=N/A elapsed=0:00:02.35    \nframe=   12 fps=4.2 q=47.0 size=       0KiB time=00:00:00.20 bitrate=   1.9kbits/s speed=0.0696x elapsed=0:00:02.87    \nframe=   40 fps= 12 q=45.0 size=       0KiB time=00:00:00.70 bitrate=   0.5kbits/s speed=0.206x elapsed=0:00:03.39    \nframe=   60 fps= 15 q=46.0 size=       0KiB time=00:00:01.12 bitrate=   0.3kbits/s speed=0.281x elapsed=0:00:03.98    \nframe=   86 fps= 18 q=50.0 size=     256KiB time=00:00:01.50 bitrate=1398.4kbits/s speed=0.32x elapsed=0:00:04.69    \nframe=  102 fps= 19 q=46.0 size=     256KiB time=00:00:01.98 bitrate=1059.4kbits/s speed=0.371x elapsed=0:00:05.33    \nframe=  126 fps= 21 q=47.0 size=     256KiB time=00:00:02.36 bitrate= 888.8kbits/s speed=0.397x elapsed=0:00:05.94    \nframe=  141 fps= 22 q=48.0 size=     256KiB time=00:00:02.78 bitrate= 754.5kbits/s speed=0.425x elapsed=0:00:06.54    \nframe=  161 fps= 22 q=51.0 size=     256KiB time=00:00:03.18 bitrate= 659.6kbits/s speed=0.444x elapsed=0:00:07.16    \nframe=  181 fps= 23 q=53.0 size=     512KiB time=00:00:03.50 bitrate=1198.5kbits/s speed=0.448x elapsed=0:00:07.80    \nframe=  214 fps= 25 q=51.0 size=     512KiB time=00:00:04.22 bitrate= 994.0kbits/s speed=0.499x elapsed=0:00:08.45    \nframe=  239 fps= 26 q=-1.0 size=     768KiB time=00:00:04.74 bitrate=1327.4kbits/s speed=0.524x elapsed=0:00:09.04    \n[mp4 @ 000001f530fdf840] Starting second pass: moving the moov atom to the beginning of the file\n[out#0/mp4 @ 000001f530fdf740] video:841KiB audio:0KiB subtitle:0KiB other streams:0KiB global headers:0KiB muxing overhead: 0.446943%\nframe=  250 fps= 27 q=-1.0 Lsize=     845KiB time=00:00:04.96 bitrate=1395.9kbits/s speed=0.543x elapsed=0:00:09.14    \n[libx264 @ 000001f531c10340] frame I:1     Avg QP:43.52  size: 45972\n[libx264 @ 000001f531c10340] frame P:63    Avg QP:47.06  size:  9650\n[libx264 @ 000001f531c10340] frame B:186   Avg QP:48.83  size:  1113\n[libx264 @ 000001f531c10340] consecutive B-frames:  0.4%  0.8%  1.2% 97.6%\n[libx264 @ 000001f531c10340] mb I  I16..4: 16.6% 70.7% 12.7%\n[libx264 @ 000001f531c10340] mb P  I16..4:  0.7%  2.5%  0.0%  P16..4: 30.5%  3.2%  8.8%  0.0%  0.0%    skip:54.2%\n[libx264 @ 000001f531c10340] mb B  I16..4:  0.0%  0.0%  0.0%  B16..8: 23.3%  0.0%  0.0%  direct: 0.0%  skip:76.7%  L0:49.4% L1:50.6% BI: 0.0%\n[libx264 @ 000001f531c10340] 8x8 transform intra:75.3% inter:95.9%\n[libx264 @ 000001f531c10340] direct mvs  spatial:94.6% temporal:5.4%\n[libx264 @ 000001f531c10340] coded y,uvDC,uvAC intra: 51.2% 20.4% 0.6% inter: 2.5% 1.2% 0.0%\n[libx264 @ 000001f531c10340] i16 v,h,dc,p: 22% 33%  6% 38%\n[libx264 @ 000001f531c10340] i8 v,h,dc,ddl,ddr,vr,hd,vl,hu:  6%  2%  3% 14% 25% 15% 19%  8%  9%\n[libx264 @ 000001f531c10340] i4 v,h,dc,ddl,ddr,vr,hd,vl,hu:  2%  1%  1% 21% 28% 14% 15%  7% 11%\n[libx264 @ 000001f531c10340] i8c dc,h,v,p: 90%  7%  2%  1%\n[libx264 @ 000001f531c10340] Weighted P-Frames: Y:0.0% UV:0.0%\n[libx264 @ 000001f531c10340] ref P L0: 63.0%  2.1% 17.3%  8.7%  8.9%\n[libx264 @ 000001f531c10340] ref B L0: 92.7%  6.8%  0.3%  0.1%\n[libx264 @ 000001f531c10340] ref B L1: 98.2%  1.8%\n[libx264 @ 000001f531c10340] kb/s:1377.39\n",
  "seconds": 9.716830968856812,
  "probe_out": {}
}